<svg width="286" height="287" viewBox="0 0 286 287" fill="none" xmlns="http://www.w3.org/2000/svg">
<path d="M121.434 1.15741C61.5731 10.2649 14.9457 54.4792 1.79037 114.495C0.233526 121.579 0 124.693 0 141.974C0 164.003 1.01195 171.087 6.38305 187.745C10.0416 198.798 19.1492 217.014 25.6101 226.043C70.1357 287.928 154.127 304.664 218.736 264.342C265.519 235.229 291.83 180.116 284.902 126.25C277.896 72.3829 244.191 28.947 193.827 8.94162C185.576 5.75009 170.163 1.85797 160.744 0.690338C151.636 -0.399445 129.918 -0.165924 121.434 1.15741ZM168.84 3.80405C212.742 12.4445 249.095 40.0784 268.944 79.7001C277.896 97.6038 282.255 113.484 283.734 133.8C287.082 177.781 268.166 222.151 233.916 250.953C210.874 270.258 183.474 281.467 153.038 284.036C120.11 286.838 84.2252 276.329 57.6032 256.168C29.8135 235.073 11.0536 205.337 3.81426 170.775C1.32332 159.099 0.467053 137.303 1.94605 125.549C6.69442 86.8615 28.3345 50.7428 60.4055 27.7016C78.387 14.8576 103.841 4.89383 125.715 2.24719C135.834 1.07956 159.187 1.85797 168.84 3.80405Z" fill="white"/>
<path d="M116.53 23.2645C111.314 26.456 110.38 34.5516 114.817 38.9108C118.709 42.8807 124.937 42.8029 128.984 38.8329C133.032 34.7852 131.553 25.5219 126.493 22.8753C123.38 21.2406 119.565 21.3963 116.53 23.2645ZM126.104 26.7674C130.308 30.893 127.505 38.8329 121.823 38.8329C116.296 38.8329 113.338 30.8152 117.308 26.6117C119.643 24.1208 123.613 24.1986 126.104 26.7674Z" fill="white"/>
<path d="M158.097 27.7016C157.397 36.6534 157.475 37.1983 159.888 39.6892C161.6 41.4018 162.924 41.9467 165.181 41.9467C171.019 41.9467 172.732 39.2222 173.666 28.48C174.133 22.7197 174.133 22.4861 172.498 22.4861C171.642 22.4861 170.863 22.7197 170.863 23.031C170.786 26.6896 169.151 36.8869 168.45 37.7432C167.127 39.3 163.546 39.0665 161.989 37.354C160.588 35.875 160.588 32.9948 161.989 24.1987C162.301 21.9412 162.145 21.7077 160.51 21.7077C158.72 21.7077 158.642 22.0191 158.097 27.7016Z" fill="white"/>
<path d="M83.1353 28.4799C81.7342 28.7135 81.345 29.4919 80.9557 32.4499C79.9438 39.6113 79.9438 39.6113 76.2074 35.4079C73.4051 32.1385 72.6266 31.6715 71.3033 32.2942C69.8243 32.9169 70.0578 33.384 74.7284 38.5994C78.0756 42.4137 79.866 45.216 80.2552 47.0842C80.6444 49.0302 81.1114 49.7308 81.8898 49.4195C82.5126 49.1859 83.291 48.9524 83.6802 48.9524C83.9916 48.9524 83.8359 47.3956 83.291 45.5273C82.4347 42.6472 82.4347 41.1682 83.6024 35.0187C84.3808 31.1266 84.9257 28.0129 84.9257 28.0129C84.8478 28.0907 84.0694 28.3242 83.1353 28.4799Z" fill="white"/>
<path d="M200.755 33.1505C196.473 47.7848 196.629 47.2399 197.952 47.7848C199.509 48.3297 200.132 47.6291 200.988 44.2819C201.533 42.4137 202.234 41.4796 203.401 41.3239C204.725 41.0903 205.114 41.5574 205.503 44.0483C206.437 49.7308 206.671 50.3536 208.305 50.7428C209.862 51.132 209.94 50.9763 209.395 46.5393C208.928 42.8029 209.084 41.9466 209.94 41.9466C211.497 41.9466 213.443 39.6892 214.066 37.2761C214.766 34.2402 212.12 31.3601 207.138 29.9589C204.803 29.2583 202.779 28.7135 202.545 28.7135C202.312 28.7135 201.533 30.7373 200.755 33.1505ZM209.084 33.384C210.796 34.3181 211.03 37.4318 209.473 38.7551C208.773 39.3778 207.294 39.5335 205.503 39.1443C203.168 38.7551 202.779 38.4437 203.168 36.9647C203.479 36.1085 203.868 34.7073 204.024 33.9289C204.491 32.4499 206.749 32.2163 209.084 33.384Z" fill="white"/>
<path d="M186.354 73.0835C181.606 73.9397 178.414 75.6523 174.755 79.3108C168.45 85.6161 166.426 93.6338 168.917 102.352C170.708 108.735 177.48 115.43 185.264 118.543C198.964 123.914 202.156 126.016 196.785 126.016C195.773 126.016 193.827 126.717 192.581 127.651C186.977 131.621 169.774 136.136 160.277 136.136C156.151 136.136 156.151 136.136 152.57 131.465C150.547 128.974 146.966 125.549 144.708 123.992C140.427 121.034 139.804 120.022 141.439 118.388C143.074 116.753 142.685 109.28 140.816 106.789C135.212 99.2384 124.859 99.1606 120.266 106.711C118.32 109.903 118.164 116.364 119.955 118.855C120.655 119.867 121.044 120.723 120.967 120.879C120.811 120.956 119.41 121.813 117.853 122.747C115.44 124.226 112.871 126.717 104.308 136.291C102.362 138.393 99.2487 140.65 95.9793 142.207C95.5901 142.363 95.3565 141.818 95.3565 140.962C95.3565 140.183 94.3446 137.459 93.0213 134.89C89.9854 128.818 86.7161 126.561 80.0995 126.172C75.6625 125.86 74.7284 126.094 72.0039 127.884C67.8783 130.609 65.7766 134.89 65.7766 140.573C65.8544 149.213 69.3573 154.896 79.2432 162.291C82.6683 164.781 86.0933 167.817 86.9496 169.063C88.4286 171.087 88.4286 171.165 87.0274 171.632C81.345 173.422 81.5785 178.17 87.3388 178.17C89.9854 178.17 94.5781 176.302 94.5781 175.212C94.5781 174.901 94.8895 174.2 95.2787 173.578C95.9014 172.644 96.602 172.955 99.1708 175.29C104.231 179.883 112.015 183.23 121.2 184.787L124.08 185.254L122.757 187.667C121.745 189.457 120.422 190.314 116.997 191.403C108.668 193.972 105.165 197.164 104.231 203.002L103.686 206.193H130.308H156.852V203.547C156.852 198.254 150.002 192.26 142.607 191.014C140.427 190.625 139.415 189.924 138.481 188.134C137.858 186.889 137.391 185.721 137.547 185.565C137.703 185.41 140.116 184.787 142.918 184.086C158.486 180.506 167.75 174.512 191.881 152.482C205.192 140.339 210.641 136.058 215.856 133.411C218.036 132.321 219.982 130.92 220.215 130.22C220.838 128.585 219.515 126.25 217.569 125.627C216.712 125.393 216.012 124.537 216.012 123.759C216.012 123.058 215.078 120.645 213.988 118.388C212.042 114.495 208.539 111.07 204.024 108.735L201.845 107.568L205.581 105.699C217.179 99.939 215.311 80.8677 202.545 74.7182C198.731 72.9278 191.414 72.1494 186.354 73.0835ZM201.533 81.9575C206.204 85.4604 207.761 90.7536 205.814 96.3583C204.725 99.3941 201.222 101.418 198.108 100.717C194.917 100.017 191.881 96.2026 191.881 92.8554C191.881 90.5201 191.647 90.2087 189.935 90.2087C186.821 90.2087 183.629 92.2326 182.54 94.8014C180.204 100.562 184.719 106.166 197.174 112.705C205.114 116.909 207.216 118.855 208.617 123.603C209.084 125.238 208.85 125.16 206.749 122.747C204.102 119.711 196.863 115.663 188.222 112.472C181.839 110.058 176.935 105.777 175.456 101.34C174.989 99.8612 174.755 96.5918 174.911 94.1008C175.612 84.6041 182.54 78.9995 193.126 79.4665C197.797 79.7001 199.12 80.0893 201.533 81.9575ZM133.811 108.969C137.936 112.238 135.601 118.465 130.23 118.465C124.547 118.465 122.99 110.292 128.284 108.112C130.853 107.1 131.553 107.178 133.811 108.969ZM137.002 127.495C139.182 128.741 142.295 131.232 144.008 132.944L147.044 136.136H130.93C121.589 136.136 114.817 135.824 114.817 135.435C114.817 134.267 122.835 127.729 125.793 126.483C129.763 124.693 132.643 125.004 137.002 127.495ZM85.3928 135.279C88.3508 138.549 89.7519 144.387 90.0633 154.117L90.2968 162.368L84.4587 157.931C77.2193 152.327 74.7284 149.758 73.2494 146.099C71.6925 142.441 71.6925 139.016 73.2494 136.058C75.5068 131.543 81.6563 131.154 85.3928 135.279ZM203.401 132.944C203.324 133.333 201.533 134.968 199.587 136.68C197.641 138.315 190.869 144.387 184.564 150.147C163.624 169.296 153.193 175.757 139.415 178.015C129.14 179.649 118.709 178.637 111.392 175.212C95.2787 167.662 91.7758 150.77 105.087 144.62C107.889 143.297 110.614 143.141 133.733 143.141C147.744 143.141 162.612 142.752 166.738 142.285C175.923 141.273 185.653 138.549 192.503 134.968C197.408 132.477 204.024 131.232 203.401 132.944ZM140.427 197.242C148.834 199.421 146.966 199.966 130.385 199.966C113.961 199.966 112.17 199.499 120.266 197.319C125.793 195.84 135.056 195.763 140.427 197.242Z" fill="white"/>
<path d="M62.0402 209.541C61.651 210.008 59.16 214.6 56.4355 219.66L51.5315 228.923L53.1662 230.558L54.8009 232.115L62.0402 227.834C66.0101 225.421 69.4352 223.552 69.5909 223.708C69.6687 223.864 68.034 227.289 65.8544 231.337L61.8845 238.654L63.6749 240.288L65.3874 241.923L74.7284 236.163C79.866 232.971 84.4587 230.247 84.8479 230.091C85.315 229.935 85.0036 229.079 84.1473 228.145L82.7462 226.51L75.2733 231.492C71.1477 234.295 67.6448 236.396 67.4891 236.241C67.3334 236.085 69.2017 232.504 71.5369 228.301L75.7404 220.594L74.1835 218.882L72.6267 217.169L66.2437 221.139C62.8186 223.319 59.0822 225.654 57.9924 226.355L56.0463 227.6L58.3816 223.708C59.6271 221.528 61.8067 217.87 63.2078 215.535C66.2437 210.553 66.2437 210.397 64.2976 209.385C63.2857 208.762 62.5851 208.84 62.0402 209.541Z" fill="white"/>
<path d="M215.389 214.756C210.407 220.049 209.862 220.906 210.952 221.762C211.964 222.618 212.509 222.462 214.455 220.594L216.712 218.415L219.67 220.828C221.305 222.151 224.341 224.953 226.521 227.133C230.724 231.492 231.347 231.726 232.748 229.857C233.526 228.768 232.592 227.522 226.598 221.762L219.515 214.834L221.772 212.577C223.874 210.319 223.952 208.451 222.006 208.607C221.461 208.684 218.503 211.409 215.389 214.756Z" fill="white"/>
<path d="M198.887 228.534C198.264 228.768 196.785 229.857 195.617 230.947C193.048 233.283 192.737 237.097 194.839 239.588C196.473 241.534 197.875 241.767 203.791 240.911C207.527 240.366 208.617 240.444 209.629 241.456C212.275 244.18 207.838 248.54 204.336 246.671C203.246 246.049 202.312 246.049 201.222 246.671C199.276 247.683 199.276 248.695 201.144 249.785C205.036 251.809 211.263 249.863 213.287 245.893C215 242.624 214.766 240.678 212.431 238.342C210.641 236.552 210.018 236.396 206.437 236.863C199.198 237.797 198.731 237.72 197.797 236.318C196.396 234.061 198.108 232.271 201.845 232.271C203.635 232.193 205.503 231.804 206.048 231.181C208.072 229.157 202.701 227.133 198.887 228.534Z" fill="white"/>
<path d="M87.6502 242.624C82.7461 251.498 82.2791 252.587 83.4467 253.444C84.1473 253.989 85.0035 254.456 85.2371 254.456C85.782 254.456 96.135 235.696 96.135 234.762C96.135 234.528 95.4344 233.905 94.656 233.438C93.2548 232.738 92.5542 233.672 87.6502 242.624Z" fill="white"/>
<path d="M179.582 238.809C178.025 239.743 186.198 259.905 188.144 259.905C188.845 259.905 189.701 259.515 189.935 259.048C190.635 257.958 182.54 238.109 181.45 238.109C180.983 238.109 180.127 238.42 179.582 238.809Z" fill="white"/>
<path d="M104.853 242.001C102.907 243.791 102.518 247.995 104.153 249.941C104.62 250.563 106.41 252.042 108.045 253.288C111.159 255.545 111.859 258.192 109.757 259.905C108.045 261.306 104.775 260.216 103.686 257.725C102.129 254.144 99.2487 253.132 99.2487 256.246C99.2487 260.06 103.919 263.797 108.59 263.797C111.937 263.797 113.649 262.707 114.817 259.905C116.14 256.713 114.817 253.677 110.847 250.953C109.212 249.785 107.656 248.15 107.344 247.294C106.799 245.504 108.278 243.558 110.147 243.558C111.548 243.558 114.039 245.893 114.039 247.216C114.039 248.073 115.751 249.007 117.23 249.007C118.164 249.007 118.086 246.126 117.152 244.258C115.128 240.6 107.811 239.199 104.853 242.001Z" fill="white"/>
<path d="M157.475 244.881C155.762 245.27 155.684 244.103 158.253 256.791C159.498 262.551 160.744 267.3 161.133 267.3C161.6 267.3 164.636 266.833 167.983 266.21C172.887 265.354 173.977 264.886 173.977 263.719C173.977 262.006 172.809 261.928 167.828 263.096C165.959 263.485 164.247 263.719 164.091 263.485C163.702 263.096 163.235 260.994 160.744 248.773C160.277 246.36 159.654 244.414 159.343 244.414C159.031 244.492 158.175 244.648 157.475 244.881Z" fill="white"/>
<path d="M127.739 256.012C127.428 262.006 127.428 267.3 127.661 267.689C127.895 268.156 128.829 268.467 129.607 268.467C130.853 268.467 131.086 267.767 131.32 263.563L131.553 258.737L136.769 258.503L141.984 258.27L142.218 263.563C142.451 268.389 142.607 268.856 144.241 269.09C145.798 269.323 145.954 269.09 145.954 265.198C145.954 262.94 146.187 257.647 146.499 253.444L146.966 245.893H144.942C142.918 245.893 142.84 246.049 142.84 250.564V255.234H137.391H131.942V250.174C131.942 245.348 131.865 245.115 130.074 245.115C128.284 245.115 128.284 245.27 127.739 256.012Z" fill="white"/>
</svg>
